IKResults
version=1
nRows=5
nColumns=42
inDegrees=yes

Units are S.I. units (second, meters, Newtons, ...)
Angles are in degrees.

endheader
time	pelvis_tilt	pelvis_list	pelvis_rotation	pelvis_tx	pelvis_ty	pelvis_tz	hip_flexion_r	hip_adduction_r	hip_rotation_r	knee_angle_r	knee_adduction_r	knee_angle_r_beta	ankle_angle_r	subtalar_angle_r	mtp_angle_r	hip_flexion_l	hip_adduction_l	hip_rotation_l	knee_angle_l	knee_adduction_l	knee_angle_l_beta	ankle_angle_l	subtalar_angle_l	mtp_angle_l	lumbar_extension	lumbar_bending	lumbar_rotation	arm_flex_r	arm_add_r	arm_rot_r	elbow_flex_r	pro_sup_r	wrist_flex_r	wrist_dev_r	arm_flex_l	arm_add_l	arm_rot_l	elbow_flex_l	pro_sup_l	wrist_flex_l	wrist_dev_l
      6.54833079	    -26.51327247	     -0.32346335	     33.68312356	      0.94908059	      0.95297147	      0.01449542	     28.37287947	    -20.84787995	    -12.09345798	      8.65654872	      6.47602164	      0.15108528	      5.41176605	     -9.14490908	      9.11349732	      1.97153168	     -5.52735650	     -8.17000870	     21.01614703	      5.09547410	      0.36680096	      8.69697587	     -7.82802810	      5.80112039	     -8.07546564	     -7.31013298	    -10.93694117	    -33.62089254	    -20.96463408	      4.88530228	    100.51113777	     87.03867006	      0.00000000	      0.00000000	     13.13326948	    -25.83792149	     20.66560399	     68.99608639	     87.81143684	      0.00000000	      0.00000000
      6.55499237	    -26.30085638	     -0.27615342	     33.51152312	      0.94923636	      0.95310618	      0.01458140	     28.20881657	    -20.69714004	    -12.04288212	      8.66704283	      6.47602164	      0.15126843	      5.43147595	     -9.12862533	      9.09995408	      2.53516954	     -5.23670323	     -7.94402996	     20.85560392	      5.09547410	      0.36399896	      8.75693779	     -7.75944356	      5.79011416	     -8.25717220	     -7.24208643	    -10.79062614	    -33.55951120	    -21.02603603	      4.89269172	    100.52096327	     87.04357880	      0.00000000	      0.00000000	     13.13239838	    -25.83743564	     20.66725623	     68.99691071	     87.81684377	      0.00000000	      0.00000000
      6.56165394	    -26.11412498	     -0.19918824	     33.40826832	      0.94930595	      0.95328940	      0.01455329	     28.02999895	    -20.61912803	    -11.91596890	      8.67221209	      6.47602164	      0.15135865	      5.41841886	     -9.13428481	      9.08401117	      3.12355962	     -4.85926319	     -7.48145603	     20.67730900	      5.09547410	      0.36088712	      8.91935811	     -7.72453012	      5.76451165	     -8.43198336	     -7.20671974	    -10.66998159	    -33.55569043	    -21.07686056	      4.90067267	    100.52683169	     87.04396729	      0.00000000	      0.00000000	     13.19335510	    -25.80716826	     20.69121345	     69.02687045	     87.83474786	      0.00000000	      0.00000000
      6.56831552	    -26.02317009	     -0.07722739	     33.40631701	      0.94918630	      0.95341379	      0.01446901	     27.92283041	    -20.69870084	    -11.97647121	      8.73340614	      6.47602164	      0.15242669	      5.41951945	     -9.12223466	      9.00391120	      3.84275575	     -4.36631996	     -6.91769462	     20.55575128	      5.09547410	      0.35876554	      8.96444616	     -7.81163976	      5.85083509	     -8.56373966	     -7.27088239	    -10.63520314	    -33.55316231	    -21.03800623	      4.84213352	    100.56264059	     87.07310923	      0.00000000	      0.00000000	     13.29116457	    -25.81625538	     20.80660388	     69.02844400	     87.78729048	      0.00000000	      0.00000000
      6.57497710	    -25.80942381	     -0.03050003	     33.22651239	      0.94932938	      0.95355769	      0.01456731	     27.76033895	    -20.54156675	    -11.89280016	      8.74150601	      6.47602164	      0.15256806	      5.43324796	     -9.10171255	      8.98517406	      4.44490030	     -4.05600479	     -6.65814454	     20.39890163	      5.09547410	      0.35602800	      9.03318087	     -7.74498621	      5.83691592	     -8.73574027	     -7.20632931	    -10.47856774	    -33.50226586	    -21.12823425	      4.84558874	    100.56907921	     87.07230586	      0.00000000	      0.00000000	     13.30951672	    -25.81615752	     20.81893718	     69.03569035	     87.80082107	      0.00000000	      0.00000000
